<?xml version="1.0" standalone="no"?><!DOCTYPE svg PUBLIC "-//W3C//DTD SVG 1.1//EN" "http://www.w3.org/Graphics/SVG/1.1/DTD/svg11.dtd"><svg t="1774257586402" class="icon" viewBox="0 0 1024 1024" version="1.1" xmlns="http://www.w3.org/2000/svg" p-id="4837" xmlns:xlink="http://www.w3.org/1999/xlink" width="200" height="200"><path d="M512 512m-512 0a512 512 0 1 0 1024 0 512 512 0 1 0-1024 0Z" fill="#D9D9D9" p-id="4838"></path><path d="M504.704 512.853333c-78.634667 0-140.8-58.197333-140.8-128.426666 0-70.186667 64-128.426667 140.8-128.426667 76.8 0 140.8 58.24 140.8 128.426667 0 70.229333-62.208 128.426667-140.8 128.426666zM266.922667 768C261.546667 768 256 762.88 256 757.76c0-128.426667 115.2-232.96 256-232.96s256 104.533333 256 232.96c0 5.12-5.504 10.24-10.965333 10.24" fill="#B8B9B9" p-id="4839"></path></svg>